<svg width="39" height="56" viewBox="0 0 39 56" fill="none" xmlns="http://www.w3.org/2000/svg">
<path d="M26.375 42.4375C25.3437 42.4375 24.6562 42.0938 23.625 41.75L19.5 40.0312L15.375 41.75C14.6875 42.0938 13.6562 42.4375 12.625 42.4375C11.9375 42.4375 11.5937 42.4375 10.9062 42.0938L9.1875 55.5L19.5 48.625L29.8125 55.5L27.75 42.0938C27.4062 42.4375 26.7187 42.4375 26.375 42.4375ZM36.3437 20.7812C36 20.0938 36 19.0625 36.3437 18.375L38.4062 14.25C39.0937 12.875 38.4062 11.1562 36.6875 10.4688L32.2187 8.75C31.5312 8.40625 30.8437 7.71875 30.5 7.03125L28.7812 2.5625C28.4375 1.1875 27.4062 0.5 26.375 0.5C26.0312 0.5 25.3437 0.5 25 0.84375L20.5312 2.90625H19.5C19.1562 2.90625 18.8125 2.90625 18.4687 2.5625L14 0.84375C13.6562 0.5 12.9687 0.5 12.625 0.5C11.5937 0.5 10.5625 1.1875 9.87499 2.21875L8.15624 7.03125C8.15624 7.71875 7.46875 8.40625 6.78125 8.75L1.96875 10.4688C0.593745 10.8125 -0.0937548 12.5312 0.593745 14.25L2.65624 18.7188C2.99999 19.4062 2.99999 20.4375 2.65624 21.125L0.593745 25.25C-0.0937548 26.625 0.593745 28.3438 2.3125 29.0312L6.78125 30.75C7.46875 31.0938 8.15625 31.7812 8.5 32.4688L10.2187 36.9375C10.5625 38.3125 11.5937 39 12.625 39C12.9687 39 13.3125 39 13.6562 38.6562L18.125 36.5938C18.4687 36.5938 18.8125 36.25 19.1562 36.25C19.5 36.25 19.8437 36.25 20.1875 36.5938L24.6562 38.6562C25 39 25.3437 39 25.6875 39C26.7187 39 27.75 38.3125 28.4375 37.2812L30.1562 32.8125C30.5 32.125 31.1875 31.4375 31.875 31.0937L36.3437 29.375C37.7187 28.6875 38.75 26.9688 38.0625 25.5938L36.3437 20.7812ZM19.5 33.5C11.9375 33.5 5.75 27.3125 5.75 19.75C5.75 12.1875 11.9375 6 19.5 6C27.0625 6 33.25 12.1875 33.25 19.75C33.25 27.3125 27.0625 33.5 19.5 33.5Z" fill="#7FB414"/>
</svg>
