<svg width="48" height="50" viewBox="0 0 48 50" fill="none" xmlns="http://www.w3.org/2000/svg">
<path fill-rule="evenodd" clip-rule="evenodd" d="M12.5 6.25C12.5 4.5924 13.1584 3.00269 14.3305 1.83058C15.5026 0.65848 17.0924 0 18.75 0C20.4076 0 21.9973 0.65848 23.1694 1.83058C24.3415 3.00269 25 4.5924 25 6.25V17.7625L38.605 19.275C41.0505 19.5469 43.31 20.7109 44.951 22.5443C46.5921 24.3778 47.4996 26.7519 47.5 29.2125V30C47.5 35.3043 45.3928 40.3914 41.6421 44.1421C37.8914 47.8929 32.8043 50 27.5 50H25.815C22.101 49.9999 18.4604 48.9656 15.3011 47.0131C12.1418 45.0605 9.58854 42.2668 7.92745 38.945L0.822455 24.735C-0.0775447 22.935 0.589955 20.5275 2.68996 19.665C5.29746 18.5975 7.77496 18.3975 10.3275 19.695C11.0675 20.07 11.7875 20.5625 12.5 21.155V6.25Z" fill="#7FB414"/>
</svg>
