<svg width="42" height="52" viewBox="0 0 42 52" fill="none" xmlns="http://www.w3.org/2000/svg">
<path d="M29.3776 45.4906L19.4509 25.7891C19.4267 25.7409 19.4219 25.6854 19.4374 25.6338C19.4529 25.5822 19.4875 25.5385 19.5342 25.5117L20.4096 25.0065C20.6016 24.8957 20.7699 24.7482 20.9048 24.5724C21.0398 24.3965 21.1388 24.1959 21.1962 23.9818C21.2536 23.7677 21.2683 23.5443 21.2393 23.3246C21.2104 23.1048 21.1385 22.8929 21.0276 22.7009L16.0147 14.0177C15.904 13.8256 15.7566 13.6572 15.5808 13.5221C15.405 13.3871 15.2043 13.2879 14.9902 13.2304C14.7761 13.1729 14.5528 13.1582 14.3329 13.1871C14.1131 13.2159 13.9012 13.2878 13.7091 13.3986L4.59876 18.6509C4.11782 18.9265 3.69633 19.2947 3.35869 19.7343C3.02105 20.1738 2.77397 20.676 2.63177 21.2117C2.53504 21.5463 2.48639 21.8929 2.48727 22.2411C2.4936 23.0427 3.45759 24.6352 4.39837 26.2784C5.40981 28.045 6.42759 29.8517 7.17641 30.3021C7.65313 30.5889 8.49477 30.8189 9.20247 30.8189H9.29106L0.925282 48.9173C0.832075 49.1185 0.779442 49.3361 0.770389 49.5577C0.761336 49.7793 0.796042 50.0004 0.872522 50.2086C0.949003 50.4167 1.06576 50.6078 1.21611 50.7708C1.36647 50.9338 1.54748 51.0655 1.74879 51.1585C1.9501 51.2515 2.16776 51.3039 2.38934 51.3128C2.61092 51.3216 2.83206 51.2866 3.04013 51.2099C3.24819 51.1332 3.4391 51.0163 3.60194 50.8658C3.76478 50.7152 3.89636 50.5341 3.98915 50.3327L13.8695 28.9595C13.9421 28.8013 14.0623 28.6696 14.2133 28.5829L16.2393 27.4143C16.2642 27.4001 16.2918 27.3911 16.3202 27.3879C16.3487 27.3847 16.3776 27.3873 16.405 27.3956C16.4324 27.4039 16.4579 27.4177 16.4798 27.4361C16.5018 27.4546 16.5197 27.4773 16.5325 27.5029L26.3633 47.0146C26.463 47.2126 26.6007 47.3889 26.7686 47.5336C26.9365 47.6783 27.1312 47.7885 27.3417 47.8579C27.5521 47.9274 27.7742 47.9547 27.9953 47.9383C28.2163 47.9219 28.4319 47.8621 28.6298 47.7624C28.8277 47.6627 29.0041 47.525 29.1488 47.3571C29.2935 47.1892 29.4037 46.9945 29.4731 46.784C29.5425 46.5736 29.5699 46.3515 29.5535 46.1305C29.5371 45.9094 29.4773 45.6938 29.3776 45.4959V45.4906ZM40.7018 11.207L35.8375 2.79688C35.2762 1.8303 34.3548 1.12542 33.275 0.836445C32.1952 0.547474 31.0449 0.697941 30.0758 1.25493L20.2313 6.92704C19.7503 7.20238 19.3286 7.57054 18.991 8.01013C18.6533 8.44972 18.4063 8.952 18.2643 9.48782C18.1245 9.93956 18.0789 10.4152 18.1304 10.8853C18.3139 12.2163 19.5015 14.0915 20.9158 16.569C22.3481 19.0718 23.9649 21.8931 24.8108 22.5037C25.5258 23.0092 26.3799 23.2807 27.2556 23.281C27.9932 23.2813 28.7179 23.087 29.3565 22.7178L39.2031 17.0425C39.6929 16.7619 40.1209 16.3852 40.4614 15.935C40.802 15.4848 41.048 14.9704 41.1848 14.4227C41.4483 13.3288 41.275 12.1752 40.7018 11.207Z" fill="#7FB414"/>
</svg>
